<mxfile modified="2023-04-06T12:43:42.676Z" host="app.diagrams.net" agent="Mozilla/5.0 (Windows NT 10.0; Win64; x64) AppleWebKit/537.36 (KHTML, like Gecko) Chrome/111.0.0.0 Safari/537.36" etag="yclHo-3OjH_PaUsrbjvA" version="21.1.4" type="github">
  <diagram id="Ht1M8jgEwFfnCIfOTk4-" name="Page-1">
    <mxGraphModel dx="1566" dy="1442" grid="1" gridSize="10" guides="1" tooltips="1" connect="1" arrows="1" fold="1" page="0" pageScale="1" pageWidth="1169" pageHeight="827" math="0" shadow="0">
      <root>
        <mxCell id="0" />
        <mxCell id="1" parent="0" />
        <mxCell id="7cwHZ4F5WGIi0yPWNqf3-6" value="VPC" style="points=[[0,0],[0.25,0],[0.5,0],[0.75,0],[1,0],[1,0.25],[1,0.5],[1,0.75],[1,1],[0.75,1],[0.5,1],[0.25,1],[0,1],[0,0.75],[0,0.5],[0,0.25]];outlineConnect=0;gradientColor=none;html=1;whiteSpace=wrap;fontSize=12;fontStyle=0;container=1;pointerEvents=0;collapsible=0;recursiveResize=0;shape=mxgraph.aws4.group;grIcon=mxgraph.aws4.group_vpc;strokeColor=#248814;fillColor=none;verticalAlign=top;align=left;spacingLeft=30;fontColor=#AAB7B8;dashed=0;" vertex="1" parent="1">
          <mxGeometry x="390" y="-400" width="650" height="510" as="geometry" />
        </mxCell>
        <mxCell id="7cwHZ4F5WGIi0yPWNqf3-8" value="Region" style="points=[[0,0],[0.25,0],[0.5,0],[0.75,0],[1,0],[1,0.25],[1,0.5],[1,0.75],[1,1],[0.75,1],[0.5,1],[0.25,1],[0,1],[0,0.75],[0,0.5],[0,0.25]];outlineConnect=0;gradientColor=none;html=1;whiteSpace=wrap;fontSize=12;fontStyle=0;container=1;pointerEvents=0;collapsible=0;recursiveResize=0;shape=mxgraph.aws4.group;grIcon=mxgraph.aws4.group_region;strokeColor=#147EBA;fillColor=none;verticalAlign=top;align=left;spacingLeft=30;fontColor=#147EBA;dashed=1;" vertex="1" parent="7cwHZ4F5WGIi0yPWNqf3-6">
          <mxGeometry x="-70" y="-40" width="720" height="550" as="geometry" />
        </mxCell>
        <mxCell id="7cwHZ4F5WGIi0yPWNqf3-13" value="Public subnet" style="points=[[0,0],[0.25,0],[0.5,0],[0.75,0],[1,0],[1,0.25],[1,0.5],[1,0.75],[1,1],[0.75,1],[0.5,1],[0.25,1],[0,1],[0,0.75],[0,0.5],[0,0.25]];outlineConnect=0;gradientColor=none;html=1;whiteSpace=wrap;fontSize=12;fontStyle=0;container=1;pointerEvents=0;collapsible=0;recursiveResize=0;shape=mxgraph.aws4.group;grIcon=mxgraph.aws4.group_security_group;grStroke=0;strokeColor=#248814;fillColor=#E9F3E6;verticalAlign=top;align=left;spacingLeft=30;fontColor=#248814;dashed=0;" vertex="1" parent="7cwHZ4F5WGIi0yPWNqf3-8">
          <mxGeometry x="100" y="120" width="220" height="120" as="geometry" />
        </mxCell>
        <mxCell id="7cwHZ4F5WGIi0yPWNqf3-38" value="" style="sketch=0;outlineConnect=0;fontColor=#232F3E;gradientColor=none;fillColor=#4D27AA;strokeColor=none;dashed=0;verticalLabelPosition=bottom;verticalAlign=top;align=center;html=1;fontSize=12;fontStyle=0;aspect=fixed;pointerEvents=1;shape=mxgraph.aws4.nat_gateway;" vertex="1" parent="7cwHZ4F5WGIi0yPWNqf3-13">
          <mxGeometry x="20" y="40" width="50" height="50" as="geometry" />
        </mxCell>
        <mxCell id="7cwHZ4F5WGIi0yPWNqf3-18" value="Private subnet" style="points=[[0,0],[0.25,0],[0.5,0],[0.75,0],[1,0],[1,0.25],[1,0.5],[1,0.75],[1,1],[0.75,1],[0.5,1],[0.25,1],[0,1],[0,0.75],[0,0.5],[0,0.25]];outlineConnect=0;gradientColor=none;html=1;whiteSpace=wrap;fontSize=12;fontStyle=0;container=1;pointerEvents=0;collapsible=0;recursiveResize=0;shape=mxgraph.aws4.group;grIcon=mxgraph.aws4.group_security_group;grStroke=0;strokeColor=#147EBA;fillColor=#E6F2F8;verticalAlign=top;align=left;spacingLeft=30;fontColor=#147EBA;dashed=0;" vertex="1" parent="7cwHZ4F5WGIi0yPWNqf3-8">
          <mxGeometry x="440" y="270" width="240" height="110" as="geometry" />
        </mxCell>
        <mxCell id="7cwHZ4F5WGIi0yPWNqf3-21" value="Private subnet" style="points=[[0,0],[0.25,0],[0.5,0],[0.75,0],[1,0],[1,0.25],[1,0.5],[1,0.75],[1,1],[0.75,1],[0.5,1],[0.25,1],[0,1],[0,0.75],[0,0.5],[0,0.25]];outlineConnect=0;gradientColor=none;html=1;whiteSpace=wrap;fontSize=12;fontStyle=0;container=1;pointerEvents=0;collapsible=0;recursiveResize=0;shape=mxgraph.aws4.group;grIcon=mxgraph.aws4.group_security_group;grStroke=0;strokeColor=#147EBA;fillColor=#E6F2F8;verticalAlign=top;align=left;spacingLeft=30;fontColor=#147EBA;dashed=0;" vertex="1" parent="7cwHZ4F5WGIi0yPWNqf3-8">
          <mxGeometry x="100" y="430" width="220" height="110" as="geometry" />
        </mxCell>
        <mxCell id="7cwHZ4F5WGIi0yPWNqf3-22" value="Private subnet" style="points=[[0,0],[0.25,0],[0.5,0],[0.75,0],[1,0],[1,0.25],[1,0.5],[1,0.75],[1,1],[0.75,1],[0.5,1],[0.25,1],[0,1],[0,0.75],[0,0.5],[0,0.25]];outlineConnect=0;gradientColor=none;html=1;whiteSpace=wrap;fontSize=12;fontStyle=0;container=1;pointerEvents=0;collapsible=0;recursiveResize=0;shape=mxgraph.aws4.group;grIcon=mxgraph.aws4.group_security_group;grStroke=0;strokeColor=#147EBA;fillColor=#E6F2F8;verticalAlign=top;align=left;spacingLeft=30;fontColor=#147EBA;dashed=0;" vertex="1" parent="7cwHZ4F5WGIi0yPWNqf3-8">
          <mxGeometry x="450" y="430" width="230" height="110" as="geometry" />
        </mxCell>
        <mxCell id="7cwHZ4F5WGIi0yPWNqf3-37" value="" style="sketch=0;outlineConnect=0;fontColor=#232F3E;gradientColor=none;fillColor=#4D27AA;strokeColor=none;dashed=0;verticalLabelPosition=bottom;verticalAlign=top;align=center;html=1;fontSize=12;fontStyle=0;aspect=fixed;pointerEvents=1;shape=mxgraph.aws4.application_load_balancer;" vertex="1" parent="7cwHZ4F5WGIi0yPWNqf3-8">
          <mxGeometry x="380" y="190" width="30" height="30" as="geometry" />
        </mxCell>
        <mxCell id="7cwHZ4F5WGIi0yPWNqf3-17" value="Private subnet" style="points=[[0,0],[0.25,0],[0.5,0],[0.75,0],[1,0],[1,0.25],[1,0.5],[1,0.75],[1,1],[0.75,1],[0.5,1],[0.25,1],[0,1],[0,0.75],[0,0.5],[0,0.25]];outlineConnect=0;gradientColor=none;html=1;whiteSpace=wrap;fontSize=12;fontStyle=0;container=1;pointerEvents=0;collapsible=0;recursiveResize=0;shape=mxgraph.aws4.group;grIcon=mxgraph.aws4.group_security_group;grStroke=0;strokeColor=#147EBA;fillColor=#E6F2F8;verticalAlign=top;align=left;spacingLeft=30;fontColor=#147EBA;dashed=0;" vertex="1" parent="1">
          <mxGeometry x="420" y="-160" width="220" height="120" as="geometry" />
        </mxCell>
        <mxCell id="7cwHZ4F5WGIi0yPWNqf3-23" value="" style="sketch=0;points=[[0,0,0],[0.25,0,0],[0.5,0,0],[0.75,0,0],[1,0,0],[0,1,0],[0.25,1,0],[0.5,1,0],[0.75,1,0],[1,1,0],[0,0.25,0],[0,0.5,0],[0,0.75,0],[1,0.25,0],[1,0.5,0],[1,0.75,0]];outlineConnect=0;fontColor=#232F3E;gradientColor=#F78E04;gradientDirection=north;fillColor=#D05C17;strokeColor=#ffffff;dashed=0;verticalLabelPosition=bottom;verticalAlign=top;align=center;html=1;fontSize=12;fontStyle=0;aspect=fixed;shape=mxgraph.aws4.resourceIcon;resIcon=mxgraph.aws4.eks;" vertex="1" parent="7cwHZ4F5WGIi0yPWNqf3-17">
          <mxGeometry x="15" y="40" width="48" height="48" as="geometry" />
        </mxCell>
        <mxCell id="7cwHZ4F5WGIi0yPWNqf3-24" value="" style="outlineConnect=0;dashed=0;verticalLabelPosition=bottom;verticalAlign=top;align=center;html=1;shape=mxgraph.aws3.ec2_compute_container_2;fillColor=#F58534;gradientColor=none;" vertex="1" parent="7cwHZ4F5WGIi0yPWNqf3-17">
          <mxGeometry x="90" y="46.75" width="60" height="34.5" as="geometry" />
        </mxCell>
        <mxCell id="7cwHZ4F5WGIi0yPWNqf3-29" value="" style="rounded=1;whiteSpace=wrap;html=1;" vertex="1" parent="1">
          <mxGeometry x="560" y="380" width="120" height="60" as="geometry" />
        </mxCell>
        <mxCell id="7cwHZ4F5WGIi0yPWNqf3-32" value="" style="points=[[0,0],[0.25,0],[0.5,0],[0.75,0],[1,0],[1,0.25],[1,0.5],[1,0.75],[1,1],[0.75,1],[0.5,1],[0.25,1],[0,1],[0,0.75],[0,0.5],[0,0.25]];outlineConnect=0;gradientColor=none;html=1;whiteSpace=wrap;fontSize=12;fontStyle=0;container=1;pointerEvents=0;collapsible=0;recursiveResize=0;shape=mxgraph.aws4.groupCenter;grIcon=mxgraph.aws4.group_auto_scaling_group;grStroke=1;strokeColor=#D86613;fillColor=none;verticalAlign=top;align=center;fontColor=#D86613;dashed=1;spacingTop=25;" vertex="1" parent="1">
          <mxGeometry x="410" y="-180" width="630" height="290" as="geometry" />
        </mxCell>
        <mxCell id="7cwHZ4F5WGIi0yPWNqf3-25" value="" style="outlineConnect=0;dashed=0;verticalLabelPosition=bottom;verticalAlign=top;align=center;html=1;shape=mxgraph.aws3.ec2_compute_container_2;fillColor=#F58534;gradientColor=none;" vertex="1" parent="7cwHZ4F5WGIi0yPWNqf3-32">
          <mxGeometry x="360" y="62.75" width="60" height="34.5" as="geometry" />
        </mxCell>
        <mxCell id="7cwHZ4F5WGIi0yPWNqf3-26" value="" style="outlineConnect=0;dashed=0;verticalLabelPosition=bottom;verticalAlign=top;align=center;html=1;shape=mxgraph.aws3.ec2_compute_container_2;fillColor=#F58534;gradientColor=none;" vertex="1" parent="7cwHZ4F5WGIi0yPWNqf3-32">
          <mxGeometry x="470" y="66.75" width="60" height="34.5" as="geometry" />
        </mxCell>
        <mxCell id="7cwHZ4F5WGIi0yPWNqf3-36" value="ALB" style="text;html=1;align=center;verticalAlign=middle;resizable=0;points=[];autosize=1;strokeColor=none;fillColor=none;" vertex="1" parent="7cwHZ4F5WGIi0yPWNqf3-32">
          <mxGeometry x="285" y="20" width="50" height="30" as="geometry" />
        </mxCell>
        <mxCell id="7cwHZ4F5WGIi0yPWNqf3-110" value="" style="rounded=1;arcSize=10;dashed=1;strokeColor=#F59D56;fillColor=none;gradientColor=none;dashPattern=8 4;strokeWidth=2;shadow=0;" vertex="1" parent="7cwHZ4F5WGIi0yPWNqf3-32">
          <mxGeometry x="340" y="-170" width="290" height="460" as="geometry" />
        </mxCell>
        <mxCell id="7cwHZ4F5WGIi0yPWNqf3-114" value="Container2&amp;nbsp;" style="text;html=1;strokeColor=none;fillColor=none;align=center;verticalAlign=middle;whiteSpace=wrap;rounded=0;" vertex="1" parent="7cwHZ4F5WGIi0yPWNqf3-32">
          <mxGeometry x="370" y="101.25" width="60" height="30" as="geometry" />
        </mxCell>
        <mxCell id="7cwHZ4F5WGIi0yPWNqf3-116" value="Container" style="text;html=1;strokeColor=none;fillColor=none;align=center;verticalAlign=middle;whiteSpace=wrap;rounded=0;" vertex="1" parent="7cwHZ4F5WGIi0yPWNqf3-32">
          <mxGeometry x="480" y="110" width="60" height="30" as="geometry" />
        </mxCell>
        <mxCell id="7cwHZ4F5WGIi0yPWNqf3-118" value="Availability zone 2" style="text;html=1;strokeColor=none;fillColor=none;align=center;verticalAlign=middle;whiteSpace=wrap;rounded=0;" vertex="1" parent="7cwHZ4F5WGIi0yPWNqf3-32">
          <mxGeometry x="380" y="-140" width="60" height="30" as="geometry" />
        </mxCell>
        <mxCell id="7cwHZ4F5WGIi0yPWNqf3-39" value="AWS Cloud" style="points=[[0,0],[0.25,0],[0.5,0],[0.75,0],[1,0],[1,0.25],[1,0.5],[1,0.75],[1,1],[0.75,1],[0.5,1],[0.25,1],[0,1],[0,0.75],[0,0.5],[0,0.25]];outlineConnect=0;gradientColor=none;html=1;whiteSpace=wrap;fontSize=12;fontStyle=0;container=1;pointerEvents=0;collapsible=0;recursiveResize=0;shape=mxgraph.aws4.group;grIcon=mxgraph.aws4.group_aws_cloud_alt;strokeColor=#232F3E;fillColor=none;verticalAlign=top;align=left;spacingLeft=30;fontColor=#232F3E;dashed=0;" vertex="1" parent="1">
          <mxGeometry x="320" y="-470" width="840" height="590" as="geometry" />
        </mxCell>
        <mxCell id="7cwHZ4F5WGIi0yPWNqf3-40" value="" style="shape=image;html=1;verticalAlign=top;verticalLabelPosition=bottom;labelBackgroundColor=#ffffff;imageAspect=0;aspect=fixed;image=https://cdn1.iconfinder.com/data/icons/iconoir-vol-3/24/open-vpn-128.png" vertex="1" parent="7cwHZ4F5WGIi0yPWNqf3-39">
          <mxGeometry x="238" y="190" width="60" height="60" as="geometry" />
        </mxCell>
        <mxCell id="7cwHZ4F5WGIi0yPWNqf3-49" value="" style="edgeStyle=elbowEdgeStyle;elbow=vertical;endArrow=classic;html=1;curved=0;rounded=0;endSize=8;startSize=8;" edge="1" parent="7cwHZ4F5WGIi0yPWNqf3-39">
          <mxGeometry width="50" height="50" relative="1" as="geometry">
            <mxPoint x="180" y="490" as="sourcePoint" />
            <mxPoint x="230" y="440" as="targetPoint" />
          </mxGeometry>
        </mxCell>
        <mxCell id="7cwHZ4F5WGIi0yPWNqf3-63" value="" style="sketch=0;points=[[0,0,0],[0.25,0,0],[0.5,0,0],[0.75,0,0],[1,0,0],[0,1,0],[0.25,1,0],[0.5,1,0],[0.75,1,0],[1,1,0],[0,0.25,0],[0,0.5,0],[0,0.75,0],[1,0.25,0],[1,0.5,0],[1,0.75,0]];outlineConnect=0;fontColor=#232F3E;gradientColor=#945DF2;gradientDirection=north;fillColor=#5A30B5;strokeColor=#ffffff;dashed=0;verticalLabelPosition=bottom;verticalAlign=top;align=center;html=1;fontSize=12;fontStyle=0;aspect=fixed;shape=mxgraph.aws4.resourceIcon;resIcon=mxgraph.aws4.route_53;" vertex="1" parent="7cwHZ4F5WGIi0yPWNqf3-39">
          <mxGeometry x="160" y="80" width="38" height="38" as="geometry" />
        </mxCell>
        <mxCell id="7cwHZ4F5WGIi0yPWNqf3-65" value="AWS WAF" style="sketch=0;outlineConnect=0;fontColor=#232F3E;gradientColor=none;strokeColor=#ffffff;fillColor=#232F3E;dashed=0;verticalLabelPosition=middle;verticalAlign=bottom;align=center;html=1;whiteSpace=wrap;fontSize=10;fontStyle=1;spacing=3;shape=mxgraph.aws4.productIcon;prIcon=mxgraph.aws4.waf;" vertex="1" parent="7cwHZ4F5WGIi0yPWNqf3-39">
          <mxGeometry x="242" y="80" width="38" height="40" as="geometry" />
        </mxCell>
        <mxCell id="7cwHZ4F5WGIi0yPWNqf3-78" value="S3" style="sketch=0;pointerEvents=1;shadow=0;dashed=0;html=1;strokeColor=none;fillColor=#DF8C42;labelPosition=center;verticalLabelPosition=bottom;verticalAlign=top;align=center;outlineConnect=0;shape=mxgraph.veeam2.aws_s3;" vertex="1" parent="7cwHZ4F5WGIi0yPWNqf3-39">
          <mxGeometry x="790" y="49" width="34" height="34" as="geometry" />
        </mxCell>
        <mxCell id="7cwHZ4F5WGIi0yPWNqf3-80" value="cloud trail" style="outlineConnect=0;dashed=0;verticalLabelPosition=bottom;verticalAlign=top;align=center;html=1;shape=mxgraph.aws3.cloudtrail;fillColor=#759C3E;gradientColor=none;" vertex="1" parent="7cwHZ4F5WGIi0yPWNqf3-39">
          <mxGeometry x="783.75" y="118" width="36.25" height="32" as="geometry" />
        </mxCell>
        <mxCell id="7cwHZ4F5WGIi0yPWNqf3-95" style="edgeStyle=orthogonalEdgeStyle;rounded=0;orthogonalLoop=1;jettySize=auto;html=1;entryX=0.5;entryY=0;entryDx=0;entryDy=0;entryPerimeter=0;" edge="1" parent="7cwHZ4F5WGIi0yPWNqf3-39" source="7cwHZ4F5WGIi0yPWNqf3-86" target="7cwHZ4F5WGIi0yPWNqf3-89">
          <mxGeometry relative="1" as="geometry" />
        </mxCell>
        <mxCell id="7cwHZ4F5WGIi0yPWNqf3-86" value="Cloud watch&amp;nbsp;" style="outlineConnect=0;dashed=0;verticalLabelPosition=bottom;verticalAlign=top;align=center;html=1;shape=mxgraph.aws3.config;fillColor=#759C3E;gradientColor=none;" vertex="1" parent="7cwHZ4F5WGIi0yPWNqf3-39">
          <mxGeometry x="790.25" y="309.5" width="40" height="31" as="geometry" />
        </mxCell>
        <mxCell id="7cwHZ4F5WGIi0yPWNqf3-88" value="ECR" style="sketch=0;points=[[0,0,0],[0.25,0,0],[0.5,0,0],[0.75,0,0],[1,0,0],[0,1,0],[0.25,1,0],[0.5,1,0],[0.75,1,0],[1,1,0],[0,0.25,0],[0,0.5,0],[0,0.75,0],[1,0.25,0],[1,0.5,0],[1,0.75,0]];outlineConnect=0;fontColor=#232F3E;gradientColor=#F78E04;gradientDirection=north;fillColor=#D05C17;strokeColor=#ffffff;dashed=0;verticalLabelPosition=bottom;verticalAlign=top;align=center;html=1;fontSize=12;fontStyle=0;aspect=fixed;shape=mxgraph.aws4.resourceIcon;resIcon=mxgraph.aws4.ecr;" vertex="1" parent="7cwHZ4F5WGIi0yPWNqf3-39">
          <mxGeometry x="791.5" y="240" width="30" height="30" as="geometry" />
        </mxCell>
        <mxCell id="7cwHZ4F5WGIi0yPWNqf3-89" value="" style="sketch=0;points=[[0,0,0],[0.25,0,0],[0.5,0,0],[0.75,0,0],[1,0,0],[0,1,0],[0.25,1,0],[0.5,1,0],[0.75,1,0],[1,1,0],[0,0.25,0],[0,0.5,0],[0,0.75,0],[1,0.25,0],[1,0.5,0],[1,0.75,0]];outlineConnect=0;fontColor=#232F3E;gradientColor=#FF4F8B;gradientDirection=north;fillColor=#BC1356;strokeColor=#ffffff;dashed=0;verticalLabelPosition=bottom;verticalAlign=top;align=center;html=1;fontSize=12;fontStyle=0;aspect=fixed;shape=mxgraph.aws4.resourceIcon;resIcon=mxgraph.aws4.sns;" vertex="1" parent="7cwHZ4F5WGIi0yPWNqf3-39">
          <mxGeometry x="790.25" y="400" width="40" height="40" as="geometry" />
        </mxCell>
        <mxCell id="7cwHZ4F5WGIi0yPWNqf3-97" value="Amazon GuardDuty" style="sketch=0;outlineConnect=0;fontColor=#232F3E;gradientColor=none;strokeColor=#ffffff;fillColor=#232F3E;dashed=0;verticalLabelPosition=middle;verticalAlign=bottom;align=center;html=1;whiteSpace=wrap;fontSize=10;fontStyle=1;spacing=3;shape=mxgraph.aws4.productIcon;prIcon=mxgraph.aws4.guardduty;" vertex="1" parent="7cwHZ4F5WGIi0yPWNqf3-39">
          <mxGeometry x="789" y="180" width="35" height="30" as="geometry" />
        </mxCell>
        <mxCell id="7cwHZ4F5WGIi0yPWNqf3-100" style="edgeStyle=orthogonalEdgeStyle;rounded=0;orthogonalLoop=1;jettySize=auto;html=1;exitX=0.25;exitY=1;exitDx=0;exitDy=0;exitPerimeter=0;entryX=0;entryY=0.75;entryDx=0;entryDy=0;entryPerimeter=0;" edge="1" parent="7cwHZ4F5WGIi0yPWNqf3-39" source="7cwHZ4F5WGIi0yPWNqf3-88" target="7cwHZ4F5WGIi0yPWNqf3-88">
          <mxGeometry relative="1" as="geometry" />
        </mxCell>
        <mxCell id="7cwHZ4F5WGIi0yPWNqf3-101" value="KMS" style="sketch=0;outlineConnect=0;fontColor=#232F3E;gradientColor=none;strokeColor=#232F3E;fillColor=#ffffff;dashed=0;verticalLabelPosition=bottom;verticalAlign=top;align=center;html=1;fontSize=12;fontStyle=0;aspect=fixed;shape=mxgraph.aws4.resourceIcon;resIcon=mxgraph.aws4.data_encryption_key;" vertex="1" parent="7cwHZ4F5WGIi0yPWNqf3-39">
          <mxGeometry x="791.5" y="460" width="40" height="40" as="geometry" />
        </mxCell>
        <mxCell id="7cwHZ4F5WGIi0yPWNqf3-34" value="" style="sketch=0;outlineConnect=0;fontColor=#232F3E;gradientColor=none;fillColor=#2E27AD;strokeColor=none;dashed=0;verticalLabelPosition=bottom;verticalAlign=top;align=center;html=1;fontSize=12;fontStyle=0;aspect=fixed;pointerEvents=1;shape=mxgraph.aws4.rds_instance;" vertex="1" parent="7cwHZ4F5WGIi0yPWNqf3-39">
          <mxGeometry x="243" y="505.5" width="50" height="50" as="geometry" />
        </mxCell>
        <mxCell id="7cwHZ4F5WGIi0yPWNqf3-105" value="muti-AZ" style="text;html=1;align=center;verticalAlign=middle;resizable=0;points=[];autosize=1;strokeColor=none;fillColor=none;" vertex="1" parent="7cwHZ4F5WGIi0yPWNqf3-39">
          <mxGeometry x="360" y="500" width="70" height="30" as="geometry" />
        </mxCell>
        <mxCell id="7cwHZ4F5WGIi0yPWNqf3-35" value="" style="sketch=0;outlineConnect=0;fontColor=#232F3E;gradientColor=none;fillColor=#2E27AD;strokeColor=none;dashed=0;verticalLabelPosition=bottom;verticalAlign=top;align=center;html=1;fontSize=12;fontStyle=0;aspect=fixed;pointerEvents=1;shape=mxgraph.aws4.rds_instance;" vertex="1" parent="7cwHZ4F5WGIi0yPWNqf3-39">
          <mxGeometry x="522" y="500" width="59" height="59" as="geometry" />
        </mxCell>
        <mxCell id="7cwHZ4F5WGIi0yPWNqf3-104" value="" style="endArrow=classic;html=1;rounded=0;" edge="1" parent="7cwHZ4F5WGIi0yPWNqf3-39" source="7cwHZ4F5WGIi0yPWNqf3-34" target="7cwHZ4F5WGIi0yPWNqf3-35">
          <mxGeometry width="50" height="50" relative="1" as="geometry">
            <mxPoint x="410" y="440" as="sourcePoint" />
            <mxPoint x="460" y="390" as="targetPoint" />
          </mxGeometry>
        </mxCell>
        <mxCell id="7cwHZ4F5WGIi0yPWNqf3-33" value="" style="sketch=0;outlineConnect=0;fontColor=#232F3E;gradientColor=none;fillColor=#2E27AD;strokeColor=none;dashed=0;verticalLabelPosition=bottom;verticalAlign=top;align=center;html=1;fontSize=12;fontStyle=0;aspect=fixed;pointerEvents=1;shape=mxgraph.aws4.rds_proxy;" vertex="1" parent="7cwHZ4F5WGIi0yPWNqf3-39">
          <mxGeometry x="140" y="500.5" width="60" height="60" as="geometry" />
        </mxCell>
        <mxCell id="7cwHZ4F5WGIi0yPWNqf3-108" value="Amazon Inspector" style="sketch=0;outlineConnect=0;fontColor=#232F3E;gradientColor=none;strokeColor=#ffffff;fillColor=#232F3E;dashed=0;verticalLabelPosition=middle;verticalAlign=bottom;align=center;html=1;whiteSpace=wrap;fontSize=10;fontStyle=1;spacing=3;shape=mxgraph.aws4.productIcon;prIcon=mxgraph.aws4.inspector;" vertex="1" parent="7cwHZ4F5WGIi0yPWNqf3-39">
          <mxGeometry x="789" y="540" width="51" height="80" as="geometry" />
        </mxCell>
        <mxCell id="7cwHZ4F5WGIi0yPWNqf3-111" value="Outbound access&amp;nbsp;" style="text;html=1;align=center;verticalAlign=middle;resizable=0;points=[];autosize=1;strokeColor=none;fillColor=none;" vertex="1" parent="7cwHZ4F5WGIi0yPWNqf3-39">
          <mxGeometry x="-40" y="180" width="120" height="30" as="geometry" />
        </mxCell>
        <mxCell id="7cwHZ4F5WGIi0yPWNqf3-109" value="" style="rounded=1;arcSize=10;dashed=1;strokeColor=#F59D56;fillColor=none;gradientColor=none;dashPattern=8 4;strokeWidth=2;" vertex="1" parent="7cwHZ4F5WGIi0yPWNqf3-39">
          <mxGeometry x="116" y="120" width="290" height="460" as="geometry" />
        </mxCell>
        <mxCell id="7cwHZ4F5WGIi0yPWNqf3-113" value="Container 1" style="text;html=1;strokeColor=none;fillColor=none;align=center;verticalAlign=middle;whiteSpace=wrap;rounded=0;" vertex="1" parent="7cwHZ4F5WGIi0yPWNqf3-39">
          <mxGeometry x="190" y="390" width="60" height="30" as="geometry" />
        </mxCell>
        <mxCell id="7cwHZ4F5WGIi0yPWNqf3-119" value="Availability zone 2" style="text;html=1;strokeColor=none;fillColor=none;align=center;verticalAlign=middle;whiteSpace=wrap;rounded=0;" vertex="1" parent="7cwHZ4F5WGIi0yPWNqf3-39">
          <mxGeometry x="290" y="120" width="60" height="30" as="geometry" />
        </mxCell>
        <mxCell id="7cwHZ4F5WGIi0yPWNqf3-120" value="NAT" style="text;html=1;strokeColor=none;fillColor=none;align=center;verticalAlign=middle;whiteSpace=wrap;rounded=0;" vertex="1" parent="7cwHZ4F5WGIi0yPWNqf3-39">
          <mxGeometry x="116" y="240" width="60" height="30" as="geometry" />
        </mxCell>
        <mxCell id="7cwHZ4F5WGIi0yPWNqf3-60" value="" style="edgeStyle=orthogonalEdgeStyle;html=1;endArrow=block;elbow=vertical;startArrow=block;startFill=1;endFill=1;strokeColor=#545B64;rounded=0;" edge="1" parent="1">
          <mxGeometry width="100" relative="1" as="geometry">
            <mxPoint x="570" y="-100" as="sourcePoint" />
            <mxPoint x="670" y="-100" as="targetPoint" />
          </mxGeometry>
        </mxCell>
        <mxCell id="7cwHZ4F5WGIi0yPWNqf3-66" value="" style="sketch=0;pointerEvents=1;shadow=0;dashed=0;html=1;strokeColor=none;labelPosition=center;verticalLabelPosition=bottom;verticalAlign=top;align=center;fillColor=#505050;shape=mxgraph.mscae.intune.user_group" vertex="1" parent="1">
          <mxGeometry x="150" y="-397" width="50" height="37" as="geometry" />
        </mxCell>
        <mxCell id="7cwHZ4F5WGIi0yPWNqf3-67" value="" style="outlineConnect=0;dashed=0;verticalLabelPosition=bottom;verticalAlign=top;align=center;html=1;shape=mxgraph.aws3.internet_3;fillColor=#D2D3D3;gradientColor=none;" vertex="1" parent="1">
          <mxGeometry x="240" y="-400" width="50" height="38" as="geometry" />
        </mxCell>
        <mxCell id="7cwHZ4F5WGIi0yPWNqf3-68" value="" style="endArrow=classic;html=1;rounded=0;exitX=0.98;exitY=0.486;exitDx=0;exitDy=0;exitPerimeter=0;" edge="1" parent="1" source="7cwHZ4F5WGIi0yPWNqf3-66" target="7cwHZ4F5WGIi0yPWNqf3-67">
          <mxGeometry width="50" height="50" relative="1" as="geometry">
            <mxPoint x="600" y="-80" as="sourcePoint" />
            <mxPoint x="650" y="-130" as="targetPoint" />
            <Array as="points">
              <mxPoint x="200" y="-380" />
            </Array>
          </mxGeometry>
        </mxCell>
        <mxCell id="7cwHZ4F5WGIi0yPWNqf3-69" value="" style="endArrow=classic;html=1;rounded=0;exitX=1;exitY=0.7;exitDx=0;exitDy=0;exitPerimeter=0;" edge="1" parent="1" source="7cwHZ4F5WGIi0yPWNqf3-67">
          <mxGeometry width="50" height="50" relative="1" as="geometry">
            <mxPoint x="600" y="-80" as="sourcePoint" />
            <mxPoint x="470" y="-380" as="targetPoint" />
            <Array as="points">
              <mxPoint x="290" y="-380" />
            </Array>
          </mxGeometry>
        </mxCell>
        <mxCell id="7cwHZ4F5WGIi0yPWNqf3-71" value="" style="endArrow=classic;html=1;rounded=0;" edge="1" parent="1">
          <mxGeometry width="50" height="50" relative="1" as="geometry">
            <mxPoint x="480" y="-380" as="sourcePoint" />
            <mxPoint x="560" y="-380" as="targetPoint" />
            <Array as="points" />
          </mxGeometry>
        </mxCell>
        <mxCell id="7cwHZ4F5WGIi0yPWNqf3-72" value="" style="endArrow=classic;html=1;rounded=0;" edge="1" parent="1" source="7cwHZ4F5WGIi0yPWNqf3-65" target="7cwHZ4F5WGIi0yPWNqf3-37">
          <mxGeometry width="50" height="50" relative="1" as="geometry">
            <mxPoint x="600" y="-180" as="sourcePoint" />
            <mxPoint x="650" y="-230" as="targetPoint" />
            <Array as="points">
              <mxPoint x="715" y="-370" />
            </Array>
          </mxGeometry>
        </mxCell>
        <mxCell id="7cwHZ4F5WGIi0yPWNqf3-73" value="ACM" style="sketch=0;points=[[0,0,0],[0.25,0,0],[0.5,0,0],[0.75,0,0],[1,0,0],[0,1,0],[0.25,1,0],[0.5,1,0],[0.75,1,0],[1,1,0],[0,0.25,0],[0,0.5,0],[0,0.75,0],[1,0.25,0],[1,0.5,0],[1,0.75,0]];outlineConnect=0;fontColor=#232F3E;gradientColor=#F54749;gradientDirection=north;fillColor=#C7131F;strokeColor=#ffffff;dashed=0;verticalLabelPosition=bottom;verticalAlign=top;align=center;html=1;fontSize=12;fontStyle=0;aspect=fixed;shape=mxgraph.aws4.resourceIcon;resIcon=mxgraph.aws4.certificate_manager_3;" vertex="1" parent="1">
          <mxGeometry x="600" y="-510" width="40" height="40" as="geometry" />
        </mxCell>
        <mxCell id="7cwHZ4F5WGIi0yPWNqf3-74" value="" style="endArrow=classic;html=1;rounded=0;entryX=0;entryY=0.5;entryDx=0;entryDy=0;entryPerimeter=0;" edge="1" parent="1" target="7cwHZ4F5WGIi0yPWNqf3-73">
          <mxGeometry width="50" height="50" relative="1" as="geometry">
            <mxPoint x="490" y="-390" as="sourcePoint" />
            <mxPoint x="650" y="-300" as="targetPoint" />
            <Array as="points">
              <mxPoint x="490" y="-490" />
            </Array>
          </mxGeometry>
        </mxCell>
        <mxCell id="7cwHZ4F5WGIi0yPWNqf3-75" value="" style="endArrow=classic;html=1;rounded=0;exitX=1;exitY=0.5;exitDx=0;exitDy=0;exitPerimeter=0;" edge="1" parent="1" source="7cwHZ4F5WGIi0yPWNqf3-73">
          <mxGeometry width="50" height="50" relative="1" as="geometry">
            <mxPoint x="650" y="-500" as="sourcePoint" />
            <mxPoint x="920" y="-490" as="targetPoint" />
            <Array as="points">
              <mxPoint x="660" y="-490" />
            </Array>
          </mxGeometry>
        </mxCell>
        <mxCell id="7cwHZ4F5WGIi0yPWNqf3-76" value="Cuteecomputers" style="sketch=0;pointerEvents=1;shadow=0;dashed=0;html=1;strokeColor=none;fillColor=#505050;labelPosition=center;verticalLabelPosition=bottom;verticalAlign=top;outlineConnect=0;align=center;shape=mxgraph.office.security.split_domain_user;" vertex="1" parent="1">
          <mxGeometry x="930" y="-525" width="59" height="55" as="geometry" />
        </mxCell>
        <mxCell id="7cwHZ4F5WGIi0yPWNqf3-77" value="" style="endArrow=classic;html=1;rounded=0;" edge="1" parent="1">
          <mxGeometry width="50" height="50" relative="1" as="geometry">
            <mxPoint x="979" y="-500" as="sourcePoint" />
            <mxPoint x="1107" y="-411" as="targetPoint" />
            <Array as="points">
              <mxPoint x="1107" y="-500" />
            </Array>
          </mxGeometry>
        </mxCell>
        <mxCell id="7cwHZ4F5WGIi0yPWNqf3-102" value="" style="endArrow=classic;html=1;rounded=0;" edge="1" parent="1" source="7cwHZ4F5WGIi0yPWNqf3-89">
          <mxGeometry relative="1" as="geometry">
            <mxPoint x="680" y="-60" as="sourcePoint" />
            <mxPoint x="1240" y="-60" as="targetPoint" />
            <Array as="points">
              <mxPoint x="1120" y="-60" />
            </Array>
          </mxGeometry>
        </mxCell>
        <mxCell id="7cwHZ4F5WGIi0yPWNqf3-103" value="" style="shape=message;html=1;outlineConnect=0;" vertex="1" parent="7cwHZ4F5WGIi0yPWNqf3-102">
          <mxGeometry width="20" height="14" relative="1" as="geometry">
            <mxPoint x="-10" y="-7" as="offset" />
          </mxGeometry>
        </mxCell>
        <mxCell id="7cwHZ4F5WGIi0yPWNqf3-106" value="" style="endArrow=classic;html=1;rounded=0;" edge="1" parent="1">
          <mxGeometry width="50" height="50" relative="1" as="geometry">
            <mxPoint x="490" y="40" as="sourcePoint" />
            <mxPoint x="530" y="40" as="targetPoint" />
            <Array as="points">
              <mxPoint x="490" y="40" />
            </Array>
          </mxGeometry>
        </mxCell>
        <mxCell id="7cwHZ4F5WGIi0yPWNqf3-112" value="" style="endArrow=classic;html=1;rounded=0;" edge="1" parent="1">
          <mxGeometry width="50" height="50" relative="1" as="geometry">
            <mxPoint x="400" y="-270" as="sourcePoint" />
            <mxPoint x="210" y="-270" as="targetPoint" />
            <Array as="points">
              <mxPoint x="240" y="-270" />
            </Array>
          </mxGeometry>
        </mxCell>
        <mxCell id="7cwHZ4F5WGIi0yPWNqf3-94" value="" style="endArrow=classic;html=1;rounded=0;exitX=0.5;exitY=0;exitDx=0;exitDy=0;" edge="1" parent="1" source="7cwHZ4F5WGIi0yPWNqf3-32" target="7cwHZ4F5WGIi0yPWNqf3-37">
          <mxGeometry width="50" height="50" relative="1" as="geometry">
            <mxPoint x="680" y="-170.5" as="sourcePoint" />
            <mxPoint x="730" y="-220.5" as="targetPoint" />
          </mxGeometry>
        </mxCell>
        <mxCell id="7cwHZ4F5WGIi0yPWNqf3-115" value="OPEN VPN" style="text;html=1;strokeColor=none;fillColor=none;align=center;verticalAlign=middle;whiteSpace=wrap;rounded=0;" vertex="1" parent="1">
          <mxGeometry x="630" y="-240" width="60" height="30" as="geometry" />
        </mxCell>
        <mxCell id="7cwHZ4F5WGIi0yPWNqf3-122" value="" style="endArrow=classic;html=1;rounded=0;" edge="1" parent="1" source="7cwHZ4F5WGIi0yPWNqf3-109" target="7cwHZ4F5WGIi0yPWNqf3-123">
          <mxGeometry width="50" height="50" relative="1" as="geometry">
            <mxPoint x="640" y="-220" as="sourcePoint" />
            <mxPoint x="560" y="-520" as="targetPoint" />
            <Array as="points">
              <mxPoint x="581" y="-510" />
            </Array>
          </mxGeometry>
        </mxCell>
        <mxCell id="7cwHZ4F5WGIi0yPWNqf3-123" value="" style="shadow=0;dashed=0;html=1;strokeColor=none;fillColor=#4495D1;labelPosition=center;verticalLabelPosition=bottom;verticalAlign=top;align=center;outlineConnect=0;shape=mxgraph.veeam.portal_admin;" vertex="1" parent="1">
          <mxGeometry x="209.99999999999994" y="-530" width="44.4" height="48.8" as="geometry" />
        </mxCell>
        <mxCell id="7cwHZ4F5WGIi0yPWNqf3-124" value="ADMIN console" style="text;html=1;strokeColor=none;fillColor=none;align=center;verticalAlign=middle;whiteSpace=wrap;rounded=0;" vertex="1" parent="1">
          <mxGeometry x="330" y="-540" width="60" height="30" as="geometry" />
        </mxCell>
      </root>
    </mxGraphModel>
  </diagram>
</mxfile>
